<svg width="20" height="20" viewBox="0 0 20 20" fill="none" xmlns="http://www.w3.org/2000/svg">
<path id="Vector" d="M4.81534 16.8015L13.9847 7.83517L15.231 9.12384L5.38623 18.8491L4.81534 16.8015ZM4.52761 16.5445L3.41954 16.4518L3.21874 15.2095L12.4949 6.29329L13.7176 7.55847L4.52761 16.5445ZM2.95013 14.9349L0.827477 14.5717L10.9234 4.66726L12.2277 6.0165L2.95013 14.9349ZM0.639097 14.9296L2.84521 15.307L3.06398 16.6618C3.07789 16.749 3.14946 16.8151 3.2374 16.8228L4.45036 16.9242L5.04784 19.0649L2.04136 19.6214C2.04383 19.3253 1.92952 18.8787 1.56717 18.4397C1.13236 17.9123 0.560511 17.9037 0.2596 17.9443L0.639097 14.9296ZM0.209076 18.3436C0.351642 18.3099 0.889009 18.2224 1.27048 18.685C1.64022 19.1333 1.67717 19.5505 1.65295 19.694L0 20L0.209076 18.3436ZM17.9407 7.64151L16.4908 9.0438C16.2706 9.25667 15.8886 9.25044 15.6753 9.02989L11.0313 4.22623C10.9243 4.11581 10.8671 3.97004 10.87 3.81528C10.8725 3.66051 10.9348 3.51647 11.0449 3.4101L12.495 2.00751C12.6027 1.90361 12.7449 1.84652 12.8959 1.84652C13.0541 1.84652 13.2016 1.90883 13.3106 2.02142L17.9542 6.82508C18.175 7.05433 18.1688 7.42023 17.9405 7.64151H17.9407ZM19.7676 4.64131L18.034 6.35414L13.736 1.90772L15.371 0.303585C15.3742 0.300397 15.6683 0 16.0357 0H16.0405C16.2496 0.00101437 16.4507 0.102884 16.6415 0.306048L19.7532 3.44855C19.775 3.47608 20.288 4.12746 19.7676 4.64114L19.7676 4.64131Z" fill="#153462"/>
</svg>
