<svg width="10" height="11" viewBox="0 0 10 11" fill="none" xmlns="http://www.w3.org/2000/svg">
<path d="M2.40767 8.90073L6.99236 4.41758L7.61551 5.06192L2.69312 9.92456L2.40767 8.90073ZM2.2638 8.77227L1.70977 8.72589L1.60937 8.10475L6.24747 3.64664L6.8588 4.27924L2.2638 8.77227ZM1.47507 7.96743L0.413738 7.78586L5.46168 2.83363L6.11387 3.50825L1.47507 7.96743ZM0.319548 7.96482L1.4226 8.1535L1.53199 8.83088C1.53894 8.8745 1.57473 8.90754 1.6187 8.91138L2.22518 8.9621L2.52392 10.0325L1.02068 10.3107C1.02191 10.1627 0.964758 9.93936 0.783584 9.71984C0.566182 9.45617 0.280255 9.45183 0.1298 9.47213L0.319548 7.96482ZM0.104538 9.67178C0.175821 9.65497 0.444504 9.6112 0.635239 9.84248C0.820111 10.0667 0.838585 10.2752 0.826475 10.347L0 10.5L0.104538 9.67178ZM8.97033 4.32075L8.24541 5.0219C8.1353 5.12834 7.94428 5.12522 7.83764 5.01495L5.51563 2.61312C5.46217 2.55791 5.43355 2.48502 5.435 2.40764C5.43623 2.33026 5.46738 2.25824 5.52243 2.20505L6.24751 1.50376C6.30133 1.45181 6.37247 1.42326 6.44796 1.42326C6.52706 1.42326 6.60081 1.45442 6.65529 1.51071L8.97712 3.91254C9.08752 4.02716 9.0845 4.21011 8.97033 4.32075ZM9.88382 2.82065L9.01699 3.67707L6.868 1.45386L7.6855 0.651793C7.68709 0.650199 7.83415 0.5 8.01786 0.5H8.02025C8.12479 0.500507 8.22534 0.551442 8.32074 0.653024L9.87662 2.22428C9.88749 2.23804 10.144 2.56382 9.88382 2.82065Z" fill="#153462"/>
</svg>
